<svg version="1" xmlns="http://www.w3.org/2000/svg" width="933.333" height="933.333" viewBox="0 0 700.000000 700.000000"><path d="M325.9 1.4c-.2.2-4.2.7-8.9 1-4.7.4-9.4.9-10.5 1.1-1.1.2-4 .7-6.5 1-2.5.3-5.6.7-7 1-1.3.2-4.2.7-6.5 1.1-2.2.3-6 1-8.5 1.6-2.5.5-5.2 1.1-6 1.3C179.3 30.1 96.8 90.7 47.8 174.1c-19.1 32.5-35.6 76.1-41.3 109.4-.3 1.6-1 5.5-1.5 8.5-.6 3-1.2 7.5-1.5 10-.4 2.5-.8 5.8-1 7.5-2.6 18-2.6 66 0 81.7.2 1.3.6 4.5.9 7.3.6 5.1.7 5.7 3.1 18.7 7.8 41.9 23.7 81.3 49.8 123.3 16.5 26.6 48.4 61.9 74.7 82.6 11.6 9.1 18 13.9 18.7 13.9.3 0 1.6.9 2.7 1.9 1.2 1.1 3.5 2.7 5.2 3.8 1.7 1 8.2 4.9 14.5 8.7 18.4 11.1 44.6 23.2 65.3 30.1 13 4.4 23.6 7.3 36.1 10.1 8.7 1.9 23.9 4.6 34 5.9 20.3 2.6 64.7 2.7 83.5 0 1.4-.2 4.8-.6 7.5-1 4.3-.6 18.4-3.1 28-5 13.6-2.7 43.1-12.2 59.8-19.4l11.2-4.8.3 14.9.3 14.8H700l-.2-67.2-.3-67.3h-35c-22.6 0-35-.4-35.1-1-.1-.6 3.1-5.7 7.1-11.5 12.3-17.9 26-42.2 33-58.5 5.2-12.2 13.7-35.1 15.1-40.5.2-.8 1.3-5.1 2.5-9.5 3.3-12.7 7.4-32.4 8.3-40 .3-2.8.8-5.9 1-7.1 2.7-13.1 2.8-73.6.2-86.9-.2-1.1-.7-4.3-1-7-.4-2.8-1.1-7.3-1.6-10-.5-2.8-1.1-6.1-1.4-7.5-2.3-13.3-10.3-42.1-14.6-52.5-.4-1.1-2.5-6.3-4.5-11.5-7.8-19.6-20.8-44.3-33.2-62.6-3.2-4.7-6.2-9.3-6.8-10.2-.5-.9-2.2-3-3.7-4.7-1.6-1.6-2.8-3.3-2.8-3.7 0-.4-.6-1.3-1.3-2-.7-.7-2.3-2.6-3.5-4.2-8.6-11.1-31.6-35-44.7-46.3-8.3-7.2-30.2-23.6-37.1-27.8-2.7-1.6-8.3-5-12.6-7.6-17.5-10.8-43.8-23.1-63.3-29.7-16.8-5.6-41.6-12.2-52-13.7-2.2-.3-4.7-.8-5.5-1-.8-.3-3.5-.7-6-.9-2.5-.3-6.1-.8-8.2-1.1-2-.3-5.6-.8-8-1.1-5.2-.6-58.3-1.5-58.9-1z"/></svg>